<svg width="64" height="64" viewBox="0 0 64 64" fill="none" xmlns="http://www.w3.org/2000/svg">
<path fill-rule="evenodd" clip-rule="evenodd" d="M32 0C49.6731 0 64 14.3269 64 32C64 49.6731 49.6731 64 32 64C14.3269 64 0 49.6731 0 32C0 14.3269 14.3269 0 32 0ZM16 24C13.7909 24 12 25.7909 12 28C12 30.2091 13.7909 32 16 32H24C26.2091 32 28 30.2091 28 28C28 25.7909 26.2091 24 24 24H16ZM40 24C37.7909 24 36 25.7909 36 28C36 30.2091 37.7909 32 40 32H48C50.2091 32 52 30.2091 52 28C52 25.7909 50.2091 24 48 24H40Z" fill="#FAFAFA"/>
</svg>
