<svg width="64" height="64" viewBox="0 0 64 64" fill="none" xmlns="http://www.w3.org/2000/svg">
<path fill-rule="evenodd" clip-rule="evenodd" d="M48 0C56.8366 0 64 7.16344 64 16V48C64 56.8366 56.8366 64 48 64H16C7.16344 64 0 56.8366 0 48V16C0 7.16344 7.16344 0 16 0H48ZM16 4C9.37258 4 4 9.37258 4 16V48C4 54.6274 9.37258 60 16 60H48C54.6274 60 60 54.6274 60 48V16C60 9.37258 54.6274 4 48 4H16Z" fill="#FAFAFA"/>
<path fill-rule="evenodd" clip-rule="evenodd" d="M32 16C40.8366 16 48 23.1634 48 32C48 40.8366 40.8366 48 32 48C23.1634 48 16 40.8366 16 32C16 23.1634 23.1634 16 32 16ZM24 28C22.8954 28 22 28.8954 22 30C22 31.1046 22.8954 32 24 32H28C29.1046 32 30 31.1046 30 30C30 28.8954 29.1046 28 28 28H24ZM36 28C34.8954 28 34 28.8954 34 30C34 31.1046 34.8954 32 36 32H40C41.1046 32 42 31.1046 42 30C42 28.8954 41.1046 28 40 28H36Z" fill="#FAFAFA"/>
</svg>
